<svg version="1.2" xmlns="http://www.w3.org/2000/svg" viewBox="0 0 576 576" width="576" height="576"><style>.a{fill:#ef8f33}.b{fill:#f5a84a}.c{fill:#facb8a}.d{fill:#f8af67}.e{fill:#dd6f23}.f{fill:#d46118}.g{fill:#d35f16}.h{fill:#de7023}.i{fill:#df7224}.j{fill:#d56218}.k{fill:#d56016}.l{fill:#e17327}.m{fill:#d56015}.n{fill:#b5490b}.o{fill:#b94a0b}.p{fill:#e17225}.q{fill:#b74d0c}.r{fill:#c55915}</style><path class="a" d="m465.1 468.3c-2.2 1.5-4.5 3-7.5 4.8-2.8-0.4-5.1-0.5-6.5-1.8-4.6-4.1-9-8.6-13.2-13.1-14.9-17-28.9-34.6-44.4-51-17.5-18.4-40.4-16.9-63.6-14.7-14.5-0.7-28.7-0.9-42.8-1.9 0.1-40.4 0.1-80.1 0.2-119.9 0-6.8 0.9-13.7 1.6-20.9 0.7-1.4 0.9-2.5 1.8-3.8 2.3-2.2 5.1-4.3 5.9-6.9 1.6-4.1 1.8-8.5 2.4-12.8q5.2-32.7 10.4-65.3c2.8-18.4 5.6-36.8 8.5-55.3 0.5-0.2 0.8-0.5 1.1-0.8 4.7 0.6 9.6 1.2 14.8 2.8 0.6 30.8 0.6 60.7 0.6 90.9 0 4.4 0.5 9.2 5.7 9.2 2.9-0.1 7-3.4 8.6-6.3 10.9-21.1 21.3-42.5 31.9-63.9 3.7-7.5 7.1-15.2 10.5-22.9q45.1-33.8 90.1-67.7c6.6-5 13.2-10.1 20.1-14.8 6.8-4.9 14.2-10 22.9-5.4 8.9 4.7 11.2 13.4 11.2 23-0.1 34.8-0.1 69.7-0.1 104.6 0 27.6-0.7 55.4 0.3 83.1 0.7 18.6 3.7 37.1 5.1 56-1.4 0.1-2.5-0.6-3.2-0.3-22.7 10.9-45.5 21.9-68.1 33-2.2 1.1-3.9 3.5-5.8 5.3 2.5 1.8 4.5 4.4 7.3 5.2 8.8 2.8 17.6 5.2 26.5 7.3 17.5 4 35 7.9 52.5 11.8 1.1 6.5 2.3 13 2.7 20.1-29.7 0.5-58.5 0.4-87.4 0.5-2.9 0-5.8 1.7-9.7 2.7 2 2.5 2.5 3.4 3.3 4.3 17.1 15.6 34.2 31.5 51.4 47 1.9 1.7 5 2.1 7.5 3.2-2 1.2-3.9 2.5-6.7 3.9-1.1 0.7-1.4 1.1-1.7 1.5-1.6 1.1-3.3 2.2-5.6 3.8-1 0.4-1.3 0.6-1.4 1.1-1 0.7-2 1.2-3.8 1.9-2.1 1.1-3.2 2.1-4.3 3.1-2.2 1.6-4.3 3.1-7.2 5-1.1 0.4-1.4 0.8-1.4 1.2-1.1 0.6-2.1 1.1-3.9 1.8-1.5 0.6-2 1.3-2.6 1.8-1.7 1.3-3.2 2.4-5.7 3.6-1.5 1-2.3 1.8-3 2.7q-0.5 0.2-0.9 0.5-0.5 0.3-0.9 0.4-0.5 0.3-0.9 0.4-0.5 0.3-0.9 0.5c-1.2 0.5-1.4 1.1-1.7 1.5zm-3.1-361.9l-45.5 37.3 87.9 80.7v-151.4c-14.6 11.5-28.1 22.2-42.4 33.4zm-41.5 213.8c-0.1-8 0.2-16.1-0.1-24-0.5-10-10.5-19.9-20.8-21.1-12.4-1.3-21.6 4.5-25.1 15.7-5 15.8-1.8 32.1-2.2 48.2 0 0.7 0.4 1.2 0.7 1.9 3.3 9.9 10.2 17.6 27.7 16.1 8.1-0.7 14.9-3.7 17.1-11.6 1.9-7.7 1.9-15.9 2.7-25.2z"/><path class="b" d="m288.6 250.2c-0.4 6.8-1.3 13.7-1.3 20.5-0.1 39.8-0.1 79.5-0.1 120-0.1 0.7 0 0.9-0.7 0.9-9.1-0.2-17.6-0.3-26.1 0-4.7 0.1-9.4 0.9-14.7 1.3-3-0.5-5.4-1.3-7.9-1.2-7.1 0.1-14.1 1.1-21.2 1.1-14.2 0.1-26.2 5.1-35.5 15.5-17.8 19.9-35.4 39.7-52.6 60.1-3.5 4-6.3 5.4-10.8 3.9-1-0.5-2-1.1-3.5-2.2-1.4-1.1-2.4-1.5-3.3-2.1 0 0 0.1 0 0-0.4-0.7-0.4-1.2-0.6-1.6-0.8-4-2.5-7.9-5-12.2-8.4-1.8-1.5-3.2-2-4.6-2.6-0.9-0.6-1.9-1-3.3-2.2-1.4-1.3-2.5-1.7-3.5-2.1-1.1-0.8-2.2-1.5-3.8-3.1-1.8-1.2-3.2-1.8-4.6-2.3-0.4-0.2-1-0.3-2-0.8-0.8-0.9-1.2-1-1.6-1.2-2.1-1.2-4.2-2.5-6.7-4.4-1.4-1.2-2.3-1.7-3.3-2.2 0 0-0.2-0.6-0.2-1.4 1.2-2.5 1.7-4.7 3-6 15.6-15 31.6-29.8 47.1-44.8 1.8-1.7 2.7-4.4 3.9-6.6-2.5-0.9-4.8-2.3-7.3-2.3-26.8-0.1-53.7-0.1-80.5 0-2.5 0-4.9 0.7-7.4 1.1 1-6.9 2-13.8 3.9-21.3 9.9-2.5 19-4.2 27.9-6.4q27.1-6.5 54.1-13.7c2.1-0.6 3.6-3.1 5.4-4.6-1.5-1.6-2.7-3.8-4.5-4.6-22.4-11-44.7-21.8-67.2-32.3-1.8-0.9-4.7 0.7-7.1 1.1 2-12.5 3.9-25 5.7-37.5q0.8-6.2 0.8-12.5 0.2-94.9 0-189.9 0-5.6 0.2-11.1c0.1-7.8 3.6-14 10.2-17.8 6.6-3.7 13.1-1.4 18.8 2.8 16.1 11.6 31.9 23.6 47.8 35.5 21.8 16.2 43.6 32.5 66 49.5 5.1 10.2 9.7 19.6 14.4 28.9 9.6 19.2 18.9 38.4 29 57.3 1.6 3.2 6.5 4.7 10 7.1 1.2-3.3 3.6-6.8 3.6-10.1 0.3-27.4 0.3-54.6 0.1-81.9 0-2.9-0.8-5.8-1.2-8.7 6.1-1 12-1.8 18.7-2.1 2.1 13.2 3.3 25.8 5.1 38.1 3.9 26.5 7.9 52.9 12.1 79.4 1.7 10.3 1.7 21.2 12.5 27.5zm-130.8-106.5c-1-1.2-1.7-2.6-2.8-3.4-16.5-13.8-33-27.4-49.7-40.8-10.8-8.8-21.9-17.1-33.8-26.4v151.4c9-8.3 16.9-15.7 24.9-22.9 12.8-11.6 25.8-23 38.5-34.7 7.7-7.2 15.1-14.8 22.9-23.2zm11.1 212.2c20.4 5.1 33.4-4.3 33.8-24.8 0.3-10.6-0.3-21.1 0.1-31.7 0.5-13.3-10.8-23.3-19.5-24.3-14.9-1.8-26.2 5.2-27.9 19.3-1.5 14.6-0.8 29.4-0.3 44.2 0.4 7.9 5.4 13.4 13.8 17.3z"/><path class="c" d="m117.8 472.7c4.4 1.1 7.2-0.3 10.7-4.3 17.2-20.4 34.8-40.2 52.6-60.1 9.3-10.4 21.3-15.4 35.5-15.5 7.1 0 14.1-1 21.2-1.1 2.5-0.1 4.9 0.7 8.1 1.7q5.2 5.4 10.4 10.6 5.1 5.5 10.2 10.9 5.3 5.4 10.3 10.8 5.1 5.4 10.3 10.8c0 0.3 0.1 0.8 0.2 1.4 0.5 3.3 1.3 6.1 1.2 8.7-0.3 11.7-1.2 23.5-1.2 35.1 0 13.9 1.2 27.7 1.2 41.5 0 6 1.9 7.2 7.4 7.2 19.2-0.2 38.5-0.1 57.6-0.1 2.4 0.1 4.7 0.8 7.2 1.3-2.3 0.5-4.8 1.3-7.2 1.3-19.4 0.2-38.8 0.3-58.2 0-26.3-0.2-52.6-0.5-78.9-1.3-5.8-0.3-12-2.1-16.9-5.2-27.5-17.5-54.4-35.4-81.7-53.7z"/><path class="d" d="m361.2 531.6c-3-0.5-5.3-1.2-7.7-1.3-19.1 0-38.4-0.1-57.6 0.1-5.5 0-7.4-1.2-7.4-7.2 0-13.8-1.2-27.6-1.2-41.5 0-11.6 0.9-23.4 1.2-35.1 0.1-2.6-0.7-5.4-0.7-8.7 2.3-2.2 4.5-3.5 6.2-5.3 12.2-13.2 24.3-26.5 36.4-39.7 22.7-2.6 45.6-4.1 63.1 14.3 15.4 16.4 29.5 34 44.4 51 4.2 4.5 8.6 9 13.2 13.1 1.4 1.3 3.7 1.4 6.1 2-22.6 15.1-45.7 30.4-68.8 45.2-6.8 4.5-14.1 7.9-21.8 11.5-1.6 0.2-2.4 0.7-3.2 1.1-0.6 0.2-1.1 0.3-2.2 0.5z"/><path class="e" d="m22.1 378.1c2.7-1 5.1-1.7 7.6-1.7 26.8-0.1 53.7-0.1 80.5 0 2.5 0 4.8 1.4 7.3 2.3-1.2 2.2-2.1 4.9-3.9 6.6-15.5 15-31.5 29.8-47.1 44.8-1.3 1.3-1.8 3.5-2.8 5.7-0.6 0.6-1.1 0.4-2.4 0-0.9-0.5-1.4-0.5-1.9-0.7-7.2-4.6-15.1-8.4-21.5-14.1-5.9-5.2-9.9-12.2-14.6-19.5-0.3-1.5-0.7-2.2-1.1-2.9-0.1-6.6-0.3-13.3-0.1-20.5z"/><path class="f" d="m518.1 433.3c-2.9-0.8-6-1.2-7.9-2.9-17.2-15.5-34.3-31.4-51.4-47-0.8-0.9-1.3-1.8-3.3-4.3 3.9-1 6.8-2.7 9.7-2.7 28.9-0.1 57.7 0 87.2 0 1.1 1.3 1.3 2.7 1.6 5.2-0.1 5.9-0.1 10.9 0 15.8-2.5 11.1-8.4 19.7-18.3 25.5-5.7 3.3-11.4 6.8-17.6 10.4z"/><path class="g" d="m390.6 114.6q-1.1 2.9-2.2 5.8-1.3 3-2.5 5.9-1.3 2.9-2.5 5.7-1.4 2.9-2.8 5.6c-10.6 21.4-21 42.8-31.9 63.9-1.6 2.9-5.7 6.2-8.6 6.3-5.2 0-5.7-4.8-5.7-9.2 0-30.2 0-60.1-0.2-90.8 2-0.4 4.1-0.4 6.8 0.4 4.3 1 8.1 1.1 11.7 1.4 9.8 1.4 19.6 2.8 30 4.7 1.4 0.3 2.2 0.2 2.9 0 1.5 0 3 0.2 5 0.3z"/><path class="h" d="m239.6 107.1c1 3.1 1.8 6 1.8 8.9 0.2 27.3 0.2 54.5-0.1 81.9 0 3.3-2.4 6.8-3.6 10.1-3.5-2.4-8.4-3.9-10-7.1-10.1-18.9-19.4-38.1-29-57.3-4.7-9.3-9.3-18.7-14-28.6 0.5-0.5 1.2-0.7 2.6-0.4 2.2 0 3.9-0.3 5.4-0.5 1.8-0.3 3.6-0.6 6.4-0.6 1.8-0.1 2.6-0.7 3.5-1.1 0.8-0.1 1.8-0.3 3.7-0.1 3.6-0.6 6.3-1.3 8.8-2 2.7-0.3 5.4-0.5 9.4-0.7 4.6-0.5 8-1.2 11.4-1.9 1.1-0.2 2.1-0.4 3.7-0.6z"/><path class="i" d="m34.7 296.2c2.5-0.9 5.4-2.5 7.2-1.6 22.5 10.5 44.8 21.3 67.2 32.3 1.8 0.8 3 3 4.5 4.6-1.8 1.5-3.3 4-5.4 4.6q-27 7.2-54.1 13.7c-8.9 2.2-18 3.9-27.6 6-0.6-1-0.7-2.3-0.1-4.2 0.5-1.8 0.5-2.8 0.5-3.8 2.5-17 5.1-33.9 7.8-51.6z"/><path class="j" d="m550 355.5q-6.7-1.4-13.2-2.8-6.6-1.4-13.2-2.8-6.5-1.5-13-3-6.5-1.4-13.2-2.9c-8.9-2.1-17.7-4.5-26.5-7.3-2.8-0.8-4.8-3.4-7.3-5.2 1.9-1.8 3.6-4.2 5.8-5.3 22.6-11.1 45.4-22.1 68.1-33 0.7-0.3 1.8 0.4 3.1 0.8 2.3 12.2 4.3 24.2 6.2 36.2 1.1 6.5 2.1 13.2 2.9 21 0 1.8 0 2.6 0.2 3.3 0 0 0.1 0.7 0.1 1z"/><path class="k" d="m317.6 105.9c-2.6 18.3-5.4 36.7-8.2 55.1q-5.2 32.6-10.4 65.3c-0.6 4.3-0.8 8.7-2.4 12.8-0.8 2.6-3.6 4.7-6.3 6.5-1.3-1.5-1.7-2.6-1.7-3.8-0.4-25.2-1-50.6-1.4-76-0.1-17.9 0-35.8 0-53.7 0-2.5-0.3-4.8-0.4-7.8h-8.3l0.1-2c0.8-0.2 1.5-0.5 3.2 0 12.6 1.5 24.3 2.5 35.8 3.6z"/><path class="l" d="m278.2 102c0.4 1 0.3 1.6 0.3 2.3h8.3c0.1 3 0.4 5.3 0.4 7.8 0 17.9-0.1 35.8 0 53.7 0.4 25.4 1 50.8 1.4 76 0 1.2 0.4 2.3 1.1 3.9 0.1 1.6-0.1 2.7-0.8 4.1-11.1-5.9-11.1-16.8-12.8-27.1-4.2-26.5-8.2-52.9-12.1-79.4-1.8-12.3-3-24.9-4.5-38 6.1-1.5 12-2.5 18.7-3.3z"/><path class="l" d="m317.9 105.7c-11.8-0.9-23.5-1.9-35.5-3.3 7.9-0.3 16.3-0.4 24.8 0 3.6 0.1 7.2 1.2 11.2 2.2 0.3 0.6 0 0.9-0.5 1.1z"/><path class="b" d="m235.5 107.5q-4.4 1.3-10.5 2.1c3-0.8 6.4-1.7 10.5-2.1z"/><path class="a" d="m554.3 397c-0.4-4.5-0.4-9.5-0.4-15q0.6 6.6 0.4 15z"/><path class="a" d="m352.3 109.3q-1.4 0-2.8 0-1.2-0.1-2.6-0.1-1.4-0.1-2.7-0.3-1.4-0.1-2.6-0.4c3.2-0.1 6.7 0.1 10.7 0.8z"/><path class="b" d="m214.6 110.2q-3.1 1.4-7.7 2.1 3-1.4 7.7-2.1z"/><path class="c" d="m77.6 446.5q1.8 0.1 4 1.7-1.8-0.2-4-1.7z"/><path class="d" d="m494.8 448.9c0.5-1 1.6-2 3.2-3-0.6 1-1.7 2-3.2 3z"/><path class="c" d="m92.7 456.2c1.2 0.2 2.6 0.7 4 1.8-1.1-0.1-2.5-0.7-4-1.8z"/><path class="c" d="m363.8 531.3c0.4-0.6 1.2-1.1 2.4-1.3-0.6 0.7-1.3 1.1-2.4 1.3zm-300.1-93.3q1.4 0 2.9 1.4-1.3-0.1-2.9-1.4zm22.2 13.9q1.4 0 2.9 1.4-1.3 0-2.9-1.4z"/><path class="d" d="m470.8 465.1q0.4-1.4 2.2-2.5-0.4 1.2-2.2 2.5z"/><path class="c" d="m111 468.4q1.2 0.2 2.8 1.5-1.3-0.1-2.8-1.5z"/><path class="b" d="m26.5 348c0.4 0.8 0.4 1.8 0 3-0.4-0.8-0.3-1.8 0-3zm165.7-234.1c-1 0.4-2.7 0.7-4.5 0.7 1.1-0.4 2.5-0.7 4.5-0.7zm10.1-1.8c-0.6 0.7-1.4 1.3-2.6 1.4 0.5-0.7 1.5-1.1 2.6-1.4z"/><path class="a" d="m385.2 114.2c-0.3 0.3-1.1 0.4-2 0.3 0.4-0.4 1-0.4 2-0.3zm164.9 240c-0.4-0.4-0.4-1.2-0.5-2.5 0.4 0.4 0.5 1.3 0.5 2.5z"/><path class="b" d="m22.1 399q0.8 0.5 1.1 2.1-0.7-0.4-1.1-2.1z"/><path class="d" d="m479.5 458.7c0.2-0.5 0.7-1.2 1.8-1.8-0.1 0.7-0.8 1.3-1.8 1.8z"/><path class="c" d="m59.7 435.4q0.4-0.3 1.2 0.3c0 0.3-0.5 0.4-0.5 0.4 0 0-0.6-0.4-0.7-0.7z"/><path class="d" d="m485.9 455.1c-0.3-0.4 0-0.8 0.7-1.1 0.3 0.4 0.1 0.8-0.7 1.1zm-20.4 13c-0.1-0.2 0.1-0.8 0.8-1.2q0.2 0.6-0.8 1.2z"/><path class="d" d="m502.5 443.9c-0.1-0.5 0.2-0.7 0.7-1 0.5 0.5 0.2 0.8-0.7 1zm7.3-5q-0.2-0.6 0.8-1.1 0.1 0.5-0.8 1.1z"/><path class="c" d="m73.8 444.6c0.3-0.3 0.7-0.2 1.1 0.4 0.2 0.3-0.5 0.3-0.5 0.3 0 0-0.6-0.5-0.6-0.7zm35.7 22.6q0.4-0.3 1.2 0.4-0.4 0.3-1.2-0.4z"/><path class="m" d="m462.4 106.1c13.9-10.9 27.4-21.6 42-33.1v151.4l-87.9-80.7c15.8-13 30.7-25.1 45.9-37.6z"/><path class="n" d="m420.5 320.9c-0.8 8.6-0.8 16.8-2.7 24.5-2.2 7.9-9 10.9-17.1 11.6-17.5 1.5-24.4-6.2-27.7-16.1-0.3-0.7-0.7-1.2-0.7-1.9 0.4-16.1-2.8-32.4 2.2-48.2 3.5-11.2 12.7-17 25.1-15.7 10.3 1.2 20.3 11.1 20.8 21.1 0.3 7.9 0 16 0.1 24.7z"/><path class="o" d="m329.9 392.5c-11.6 13.6-23.7 26.9-35.9 40.1-1.7 1.8-3.9 3.1-6.2 4.7-0.6 0-0.7-0.5-0.6-1.3 0.6-3.8 1.4-6.7 1.3-9.6-0.3-11.7-0.9-23.2-1.3-34.8 0 0-0.1-0.2-0.1-0.3 14.1 0.3 28.3 0.5 42.8 1.2z"/><path class="p" d="m157.6 144.2c-7.6 7.9-15 15.5-22.7 22.7-12.7 11.7-25.7 23.1-38.5 34.7-8 7.2-15.9 14.6-24.9 22.9v-151.4c11.9 9.3 23 17.6 33.8 26.4 16.7 13.4 33.2 27 49.7 40.8 1.1 0.8 1.8 2.2 2.6 3.9z"/><path class="q" d="m168.3 355.6c-7.8-3.6-12.8-9.1-13.2-17-0.5-14.8-1.2-29.6 0.3-44.2 1.7-14.1 13-21.1 27.9-19.3 8.7 1 20 11 19.5 24.3-0.4 10.6 0.2 21.1-0.1 31.7-0.4 20.5-13.4 29.9-34.4 24.5z"/><path class="r" d="m286.5 391.6c1.1 11.6 1.7 23.1 2 34.8 0.1 2.9-0.7 5.8-1.3 9.3-13.6-13.6-27-27.6-40.8-42.2 4.6-1 9.3-1.8 14-1.9 8.5-0.3 17-0.2 26.1 0z"/><path class="a" d="m465.1 468.3c-2.2 1.5-4.5 3-7.5 4.8-2.8-0.4-5.1-0.5-6.5-1.8-4.6-4.1-9-8.6-13.2-13.1-14.9-17-28.9-34.6-44.4-51-17.5-18.4-40.4-16.9-63.6-14.7-14.5-0.7-28.7-0.9-42.8-1.9 0.1-40.4 0.1-80.1 0.2-119.9 0-6.8 0.9-13.7 1.6-20.9 0.7-1.4 0.9-2.5 1.8-3.8 2.3-2.2 5.1-4.3 5.9-6.9 1.6-4.1 1.8-8.5 2.4-12.8q5.2-32.7 10.4-65.3c2.8-18.4 5.6-36.8 8.5-55.3 0.5-0.2 0.8-0.5 1.1-0.8 4.7 0.6 9.6 1.2 14.8 2.8 0.6 30.8 0.6 60.7 0.6 90.9 0 4.4 0.5 9.2 5.7 9.2 2.9-0.1 7-3.4 8.6-6.3 10.9-21.1 21.3-42.5 31.9-63.9 3.7-7.5 7.1-15.2 10.5-22.9q45.1-33.8 90.1-67.7c6.6-5 13.2-10.1 20.1-14.8 6.8-4.9 14.2-10 22.9-5.4 8.9 4.7 11.2 13.4 11.2 23-0.1 34.8-0.1 69.7-0.1 104.6 0 27.6-0.7 55.4 0.3 83.1 0.7 18.6 3.7 37.1 5.1 56-1.4 0.1-2.5-0.6-3.2-0.3-22.7 10.9-45.5 21.9-68.1 33-2.2 1.1-3.9 3.5-5.8 5.3 2.5 1.8 4.5 4.4 7.3 5.2 8.8 2.8 17.6 5.2 26.5 7.3 17.5 4 35 7.9 52.5 11.8 1.1 6.5 2.3 13 2.7 20.1-29.7 0.5-58.5 0.4-87.4 0.5-2.9 0-5.8 1.7-9.7 2.7 2 2.5 2.5 3.4 3.3 4.3 17.1 15.6 34.2 31.5 51.4 47 1.9 1.7 5 2.1 7.5 3.2-2 1.2-3.9 2.5-6.7 3.9-1.1 0.7-1.4 1.1-1.7 1.5-1.6 1.1-3.3 2.2-5.6 3.8-1 0.4-1.3 0.6-1.4 1.1-1 0.7-2 1.2-3.8 1.9-2.1 1.1-3.2 2.1-4.3 3.1-2.2 1.6-4.3 3.1-7.2 5-1.1 0.4-1.4 0.8-1.4 1.2-1.1 0.6-2.1 1.1-3.9 1.8-1.5 0.6-2 1.3-2.6 1.8-1.7 1.3-3.2 2.4-5.7 3.6-1.5 1-2.3 1.8-3 2.7q-0.5 0.2-0.9 0.5-0.5 0.3-0.9 0.4-0.5 0.3-0.9 0.4-0.5 0.3-0.9 0.5c-1.2 0.5-1.4 1.1-1.7 1.5zm-3.1-361.9l-45.5 37.3 87.9 80.7v-151.4c-14.6 11.5-28.1 22.2-42.4 33.4zm-41.5 213.8c-0.1-8 0.2-16.1-0.1-24-0.5-10-10.5-19.9-20.8-21.1-12.4-1.3-21.6 4.5-25.1 15.7-5 15.8-1.8 32.1-2.2 48.2 0 0.7 0.4 1.2 0.7 1.9 3.3 9.9 10.2 17.6 27.7 16.1 8.1-0.7 14.9-3.7 17.1-11.6 1.9-7.7 1.9-15.9 2.7-25.2z"/><path class="b" d="m288.6 250.2c-0.4 6.8-1.3 13.7-1.3 20.5-0.1 39.8-0.1 79.5-0.1 120-0.1 0.7 0 0.9-0.7 0.9-9.1-0.2-17.6-0.3-26.1 0-4.7 0.1-9.4 0.9-14.7 1.3-3-0.5-5.4-1.3-7.9-1.2-7.1 0.1-14.1 1.1-21.2 1.1-14.2 0.1-26.2 5.1-35.5 15.5-17.8 19.9-35.4 39.7-52.6 60.1-3.5 4-6.3 5.4-10.8 3.9-1-0.5-2-1.1-3.5-2.2-1.4-1.1-2.4-1.5-3.3-2.1 0 0 0.1 0 0-0.4-0.7-0.4-1.2-0.6-1.6-0.8-4-2.5-7.9-5-12.2-8.4-1.8-1.5-3.2-2-4.6-2.6-0.9-0.6-1.9-1-3.3-2.2-1.4-1.3-2.5-1.7-3.5-2.1-1.1-0.8-2.2-1.5-3.8-3.1-1.8-1.2-3.2-1.8-4.6-2.3-0.4-0.2-1-0.3-2-0.8-0.8-0.9-1.2-1-1.6-1.2-2.1-1.2-4.2-2.5-6.7-4.4-1.4-1.2-2.3-1.7-3.3-2.2 0 0-0.2-0.6-0.2-1.4 1.2-2.5 1.7-4.7 3-6 15.6-15 31.6-29.8 47.1-44.8 1.8-1.7 2.7-4.4 3.9-6.6-2.5-0.9-4.8-2.3-7.3-2.3-26.8-0.1-53.7-0.1-80.5 0-2.5 0-4.9 0.7-7.4 1.1 1-6.9 2-13.8 3.9-21.3 9.9-2.5 19-4.2 27.9-6.4q27.1-6.5 54.1-13.7c2.1-0.6 3.6-3.1 5.4-4.6-1.5-1.6-2.7-3.8-4.5-4.6-22.4-11-44.7-21.8-67.2-32.3-1.8-0.9-4.7 0.7-7.1 1.1 2-12.5 3.9-25 5.7-37.5q0.8-6.2 0.8-12.5 0.2-94.9 0-189.9 0-5.6 0.2-11.1c0.1-7.8 3.6-14 10.2-17.8 6.6-3.7 13.1-1.4 18.8 2.8 16.1 11.6 31.9 23.6 47.8 35.5 21.8 16.2 43.6 32.5 66 49.5 5.1 10.2 9.7 19.6 14.4 28.9 9.6 19.2 18.9 38.4 29 57.3 1.6 3.2 6.5 4.7 10 7.1 1.2-3.3 3.6-6.8 3.6-10.1 0.3-27.4 0.3-54.6 0.1-81.9 0-2.9-0.8-5.8-1.2-8.7 6.1-1 12-1.8 18.7-2.1 2.1 13.2 3.3 25.8 5.1 38.1 3.9 26.5 7.9 52.9 12.1 79.4 1.7 10.3 1.7 21.2 12.5 27.5zm-130.8-106.5c-1-1.2-1.7-2.6-2.8-3.4-16.5-13.8-33-27.4-49.7-40.8-10.8-8.8-21.9-17.1-33.8-26.4v151.4c9-8.3 16.9-15.7 24.9-22.9 12.8-11.6 25.8-23 38.5-34.7 7.7-7.2 15.1-14.8 22.9-23.2zm11.1 212.2c20.4 5.1 33.4-4.3 33.8-24.8 0.3-10.6-0.3-21.1 0.1-31.7 0.5-13.3-10.8-23.3-19.5-24.3-14.9-1.8-26.2 5.2-27.9 19.3-1.5 14.6-0.8 29.4-0.3 44.2 0.4 7.9 5.4 13.4 13.8 17.3z"/><path class="c" d="m117.8 472.7c4.4 1.1 7.2-0.3 10.7-4.3 17.2-20.4 34.8-40.2 52.6-60.1 9.3-10.4 21.3-15.4 35.5-15.5 7.1 0 14.1-1 21.2-1.1 2.5-0.1 4.9 0.7 8.1 1.7q5.2 5.4 10.4 10.6 5.1 5.5 10.2 10.9 5.3 5.4 10.3 10.8 5.1 5.4 10.3 10.8c0 0.3 0.1 0.8 0.2 1.4 0.5 3.3 1.3 6.1 1.2 8.7-0.3 11.7-1.2 23.5-1.2 35.1 0 13.9 1.2 27.7 1.2 41.5 0 6 1.9 7.2 7.4 7.2 19.2-0.2 38.5-0.1 57.6-0.1 2.4 0.1 4.7 0.8 7.2 1.3-2.3 0.5-4.8 1.3-7.2 1.3-19.4 0.2-38.8 0.3-58.2 0-26.3-0.2-52.6-0.5-78.9-1.3-5.8-0.3-12-2.1-16.9-5.2-27.5-17.5-54.4-35.4-81.7-53.7z"/><path class="d" d="m361.2 531.6c-3-0.5-5.3-1.2-7.7-1.3-19.1 0-38.4-0.1-57.6 0.1-5.5 0-7.4-1.2-7.4-7.2 0-13.8-1.2-27.6-1.2-41.5 0-11.6 0.9-23.4 1.2-35.1 0.1-2.6-0.7-5.4-0.7-8.7 2.3-2.2 4.5-3.5 6.2-5.3 12.2-13.2 24.3-26.5 36.4-39.7 22.7-2.6 45.6-4.1 63.1 14.3 15.4 16.4 29.5 34 44.4 51 4.2 4.5 8.6 9 13.2 13.1 1.4 1.3 3.7 1.4 6.1 2-22.6 15.1-45.7 30.4-68.8 45.2-6.8 4.5-14.1 7.9-21.8 11.5-1.6 0.2-2.4 0.7-3.2 1.1-0.6 0.2-1.1 0.3-2.2 0.5z"/><path class="e" d="m22.1 378.1c2.7-1 5.1-1.7 7.6-1.7 26.8-0.1 53.7-0.1 80.5 0 2.5 0 4.8 1.4 7.3 2.3-1.2 2.2-2.1 4.9-3.9 6.6-15.5 15-31.5 29.8-47.1 44.8-1.3 1.3-1.8 3.5-2.8 5.7-0.6 0.6-1.1 0.4-2.4 0-0.9-0.5-1.4-0.5-1.9-0.7-7.2-4.6-15.1-8.4-21.5-14.1-5.9-5.2-9.9-12.2-14.6-19.5-0.3-1.5-0.7-2.2-1.1-2.9-0.1-6.6-0.3-13.3-0.1-20.5z"/><path class="f" d="m518.1 433.3c-2.9-0.8-6-1.2-7.9-2.9-17.2-15.5-34.3-31.4-51.4-47-0.8-0.9-1.3-1.8-3.3-4.3 3.9-1 6.8-2.7 9.7-2.7 28.9-0.1 57.7 0 87.2 0 1.1 1.3 1.3 2.7 1.6 5.2-0.1 5.9-0.1 10.9 0 15.8-2.5 11.1-8.4 19.7-18.3 25.5-5.7 3.3-11.4 6.8-17.6 10.4z"/><path class="g" d="m390.6 114.6q-1.1 2.9-2.2 5.8-1.3 3-2.5 5.9-1.3 2.9-2.5 5.7-1.4 2.9-2.8 5.6c-10.6 21.4-21 42.8-31.9 63.9-1.6 2.9-5.7 6.2-8.6 6.3-5.2 0-5.7-4.8-5.7-9.2 0-30.2 0-60.1-0.2-90.8 2-0.4 4.1-0.4 6.8 0.4 4.3 1 8.1 1.1 11.7 1.4 9.8 1.4 19.6 2.8 30 4.7 1.4 0.3 2.2 0.2 2.9 0 1.5 0 3 0.2 5 0.3z"/><path class="h" d="m239.6 107.1c1 3.1 1.8 6 1.8 8.9 0.2 27.3 0.2 54.5-0.1 81.9 0 3.3-2.4 6.8-3.6 10.1-3.5-2.4-8.4-3.9-10-7.1-10.1-18.9-19.4-38.1-29-57.3-4.7-9.3-9.3-18.7-14-28.6 0.5-0.5 1.2-0.7 2.6-0.4 2.2 0 3.9-0.3 5.4-0.5 1.8-0.3 3.6-0.6 6.4-0.6 1.8-0.1 2.6-0.7 3.5-1.1 0.8-0.1 1.8-0.3 3.7-0.1 3.6-0.6 6.3-1.3 8.8-2 2.7-0.3 5.4-0.5 9.4-0.7 4.6-0.5 8-1.2 11.4-1.9 1.1-0.2 2.1-0.4 3.7-0.6z"/><path class="i" d="m34.7 296.2c2.5-0.9 5.4-2.5 7.2-1.6 22.5 10.5 44.8 21.3 67.2 32.3 1.8 0.8 3 3 4.5 4.6-1.8 1.5-3.3 4-5.4 4.6q-27 7.2-54.1 13.7c-8.9 2.2-18 3.9-27.6 6-0.6-1-0.7-2.3-0.1-4.2 0.5-1.8 0.5-2.8 0.5-3.8 2.5-17 5.1-33.9 7.8-51.6z"/><path class="j" d="m550 355.5q-6.7-1.4-13.2-2.8-6.6-1.4-13.2-2.8-6.5-1.5-13-3-6.5-1.4-13.2-2.9c-8.9-2.1-17.7-4.5-26.5-7.3-2.8-0.8-4.8-3.4-7.3-5.2 1.9-1.8 3.6-4.2 5.8-5.3 22.6-11.1 45.4-22.1 68.1-33 0.7-0.3 1.8 0.4 3.1 0.8 2.3 12.2 4.3 24.2 6.2 36.2 1.1 6.5 2.1 13.2 2.9 21 0 1.8 0 2.6 0.2 3.3 0 0 0.1 0.7 0.1 1z"/><path class="k" d="m317.6 105.9c-2.6 18.3-5.4 36.7-8.2 55.1q-5.2 32.6-10.4 65.3c-0.6 4.3-0.8 8.7-2.4 12.8-0.8 2.6-3.6 4.7-6.3 6.5-1.3-1.5-1.7-2.6-1.7-3.8-0.4-25.2-1-50.6-1.4-76-0.1-17.9 0-35.8 0-53.7 0-2.5-0.3-4.8-0.4-7.8h-8.3l0.1-2c0.8-0.2 1.5-0.5 3.2 0 12.6 1.5 24.3 2.5 35.8 3.6z"/><path class="l" d="m278.2 102c0.4 1 0.3 1.6 0.3 2.3h8.3c0.1 3 0.4 5.3 0.4 7.8 0 17.9-0.1 35.8 0 53.7 0.4 25.4 1 50.8 1.4 76 0 1.2 0.4 2.3 1.1 3.9 0.1 1.6-0.1 2.7-0.8 4.1-11.1-5.9-11.1-16.8-12.8-27.1-4.2-26.5-8.2-52.9-12.1-79.4-1.8-12.3-3-24.9-4.5-38 6.1-1.5 12-2.5 18.7-3.3z"/><path class="l" d="m317.9 105.7c-11.8-0.9-23.5-1.9-35.5-3.3 7.9-0.3 16.3-0.4 24.8 0 3.6 0.1 7.2 1.2 11.2 2.2 0.3 0.6 0 0.9-0.5 1.1z"/><path class="b" d="m235.5 107.5q-4.4 1.3-10.5 2.1c3-0.8 6.4-1.7 10.5-2.1z"/><path class="a" d="m554.3 397c-0.4-4.5-0.4-9.5-0.4-15q0.6 6.6 0.4 15z"/><path class="a" d="m352.3 109.3q-1.4 0-2.8 0-1.2-0.1-2.6-0.1-1.4-0.1-2.7-0.3-1.4-0.1-2.6-0.4c3.2-0.1 6.7 0.1 10.7 0.8z"/><path class="b" d="m214.6 110.2q-3.1 1.4-7.7 2.1 3-1.4 7.7-2.1z"/><path class="c" d="m77.6 446.5q1.8 0.1 4 1.7-1.8-0.2-4-1.7z"/><path class="d" d="m494.8 448.9c0.5-1 1.6-2 3.2-3-0.6 1-1.7 2-3.2 3z"/><path class="c" d="m92.7 456.2c1.2 0.2 2.6 0.7 4 1.8-1.1-0.1-2.5-0.7-4-1.8z"/><path class="c" d="m363.8 531.3c0.4-0.6 1.2-1.1 2.4-1.3-0.6 0.7-1.3 1.1-2.4 1.3zm-300.1-93.3q1.4 0 2.9 1.4-1.3-0.1-2.9-1.4zm22.2 13.9q1.4 0 2.9 1.4-1.3 0-2.9-1.4z"/><path class="d" d="m470.8 465.1q0.4-1.4 2.2-2.5-0.4 1.2-2.2 2.5z"/><path class="c" d="m111 468.4q1.2 0.2 2.8 1.5-1.3-0.1-2.8-1.5z"/><path class="b" d="m26.5 348c0.4 0.8 0.4 1.8 0 3-0.4-0.8-0.3-1.8 0-3zm165.7-234.1c-1 0.4-2.7 0.7-4.5 0.7 1.1-0.4 2.5-0.7 4.5-0.7zm10.1-1.8c-0.6 0.7-1.4 1.3-2.6 1.4 0.5-0.7 1.5-1.1 2.6-1.4z"/><path class="a" d="m385.2 114.2c-0.3 0.3-1.1 0.4-2 0.3 0.4-0.4 1-0.4 2-0.3zm164.9 240c-0.4-0.4-0.4-1.2-0.5-2.5 0.4 0.4 0.5 1.3 0.5 2.5z"/><path class="b" d="m22.1 399q0.8 0.5 1.1 2.1-0.7-0.4-1.1-2.1z"/><path class="d" d="m479.5 458.7c0.2-0.5 0.7-1.2 1.8-1.8-0.1 0.7-0.8 1.3-1.8 1.8z"/><path class="c" d="m59.7 435.4q0.4-0.3 1.2 0.3c0 0.3-0.5 0.4-0.5 0.4 0 0-0.6-0.4-0.7-0.7z"/><path class="d" d="m485.9 455.1c-0.3-0.4 0-0.8 0.7-1.1 0.3 0.4 0.1 0.8-0.7 1.1zm-20.4 13c-0.1-0.2 0.1-0.8 0.8-1.2q0.2 0.6-0.8 1.2z"/><path class="d" d="m502.5 443.9c-0.1-0.5 0.2-0.7 0.7-1 0.5 0.5 0.2 0.8-0.7 1zm7.3-5q-0.2-0.6 0.8-1.1 0.1 0.5-0.8 1.1z"/><path class="c" d="m73.8 444.6c0.3-0.3 0.7-0.2 1.1 0.4 0.2 0.3-0.5 0.3-0.5 0.3 0 0-0.6-0.5-0.6-0.7zm35.7 22.6q0.4-0.3 1.2 0.4-0.4 0.3-1.2-0.4z"/><path class="m" d="m462.4 106.1c13.9-10.9 27.4-21.6 42-33.1v151.4l-87.9-80.7c15.8-13 30.7-25.1 45.9-37.6z"/><path class="n" d="m420.5 320.9c-0.8 8.6-0.8 16.8-2.7 24.5-2.2 7.9-9 10.9-17.1 11.6-17.5 1.5-24.4-6.2-27.7-16.1-0.3-0.7-0.7-1.2-0.7-1.9 0.4-16.1-2.8-32.4 2.2-48.2 3.5-11.2 12.7-17 25.1-15.7 10.3 1.2 20.3 11.1 20.8 21.1 0.3 7.9 0 16 0.1 24.7z"/><path class="o" d="m329.9 392.5c-11.6 13.6-23.7 26.9-35.9 40.1-1.7 1.8-3.9 3.1-6.2 4.7-0.6 0-0.7-0.5-0.6-1.3 0.6-3.8 1.4-6.7 1.3-9.6-0.3-11.7-0.9-23.2-1.3-34.8 0 0-0.1-0.2-0.1-0.3 14.1 0.3 28.3 0.5 42.8 1.2z"/><path class="p" d="m157.6 144.2c-7.6 7.9-15 15.5-22.7 22.7-12.7 11.7-25.7 23.1-38.5 34.7-8 7.2-15.9 14.6-24.9 22.9v-151.4c11.9 9.3 23 17.6 33.8 26.4 16.7 13.4 33.2 27 49.7 40.8 1.1 0.8 1.8 2.2 2.6 3.9z"/><path class="q" d="m168.3 355.6c-7.8-3.6-12.8-9.1-13.2-17-0.5-14.8-1.2-29.6 0.3-44.2 1.7-14.1 13-21.1 27.9-19.3 8.7 1 20 11 19.5 24.3-0.4 10.6 0.2 21.1-0.1 31.7-0.4 20.5-13.4 29.9-34.4 24.5z"/><path class="r" d="m286.5 391.6c1.1 11.6 1.7 23.1 2 34.8 0.1 2.9-0.7 5.8-1.3 9.3-13.6-13.6-27-27.6-40.8-42.2 4.6-1 9.3-1.8 14-1.9 8.5-0.3 17-0.2 26.1 0z"/></svg>